<svg xmlns="http://www.w3.org/2000/svg" height="30" width="30" viewBox="110 300 420 250"><path class="st0" d="M364.7 398.4c7.1 5.7 16 8.5 27 8.6h.6c13.6-.1 24-4.4 31.8-13.2 19.6-22.1 15.3-64 15.2-64.5-.1-.1-.1-.3-.1-.5-1.9-41.8-30.2-48.6-46.9-49h-.7c-4.3 0-10.3.5-16.7 2.5 2.7 8.5 4.6 18.3 5.1 29.8.5 5.2 4.5 51.6-15.3 86.3z"/><path d="M349.5 278c3-2.6 6.1-4.7 9-6.3 3.3-1.9 6.6-3.3 9.8-4.5-.9-1.5-1.8-3-2.7-4.4h-28.9c4.8 3.9 9.2 8.9 12.8 15.2z"/><path d="M455.8 327.9c-1.5-32.9-17.1-48.6-29.9-55.9-9.6-5.5-20.7-8.5-33.2-8.7h-1c-5.1 0-13.9.6-23.4 4-3.2 1.1-6.5 2.6-9.8 4.5-2.9 1.7-6 3.7-9 6.3 2.7 4.8 4.9 10.5 6.5 17 1.3 5.5 2.2 11.7 2.5 18.6 0 .2 0 .5.1.6.1.4 3.7 35.4-7.9 64-2.5 6.2-5.8 12.1-9.9 17.3-.6.8-1.3 1.6-1.9 2.3-10.1 11.4-23.5 17-41.2 17.1h-.8c-12.5-.1-22.9-3-31.4-8.6-3.5-2.3-6.8-5.2-9.7-8.5-25.4-28.5-19.9-83.1-19.8-83.6 0-.2.1-.5.1-.6 2.6-57.4 43.4-63.5 60.8-63.5h1c11.2.2 26.5 2.7 39 12.7h28.9c-7.3-11.2-16.3-18.4-24.4-23.1-12.4-7.1-26.9-11-43-11.3H297c-8.9 0-26.3 1.4-43 11-16.8 9.5-37.3 29.9-39.3 72.9-.6 5.7-5.7 65.2 25.1 99.9 7.2 8.2 15.9 14.3 25.8 18.4 9.1 3.8 19.3 5.8 30.6 6h2.6c23.4-.4 42.4-8.6 56.4-24.4l.2-.2c9.7 7.5 21.7 11.5 35.9 11.7h2c18.1-.3 32.7-6.7 43.5-18.8 23.3-26.8 19.4-72.7 19-77.1zm-31.8 66c-7.8 8.8-18.1 13.1-31.8 13.2h-.6c-11-.1-19.9-2.9-27-8.6 19.8-34.8 15.8-81.2 15.3-86.1-.5-11.5-2.4-21.3-5.1-29.8 6.4-2.1 12.4-2.5 16.7-2.5h.7c16.7.4 45 7.2 46.9 49 0 .2 0 .4.1.5.1.3 4.4 42.2-15.2 64.3z"/><path d="M518.7 499.9v-.2c0-.5-.1-1-.1-1.5-.4-12.2-1.2-40.8-27.9-49.9-.2-.1-.4-.1-.6-.2-10.4-2.6-20.1-6.5-28.3-10.4-13.6-6.5-22.8-12.8-22.9-12.9-3.8-2.7-8.9-1.7-11.6 2-2.7 3.8-1.7 8.9 2 11.6.8.5 13.8 9.6 32.5 17.5 7.2 3.1 15.3 6 23.8 8.2 14.4 5.1 16 20.5 16.4 34.5 0 .6 0 1 .1 1.5.1 5.6-.3 14.1-1.3 19.1-5.3 3-18.7 9.9-39 15.7-.1 0-.1 0-.2.1 0-.6-.1-1.2-.1-1.9-.5-15.8-1.5-52.9-36.2-64.7-.2-.1-.6-.2-.8-.2-36.1-9.2-66.1-30-66.4-30.2-.6-.4-1.2-.7-1.8-1-4.6-2.1-10.2-.7-13.3 3.6-1.3 1.9-1.9 4-2 6.1 0 3.4 1.6 6.8 4.6 8.9 1.4 1 33.2 23.1 73 33.4 18.6 6.6 20.7 26.6 21.3 44.8 0 .7 0 1.4.1 2v4.4c-.1 5.5-.4 12.1-1.1 17.1-.2 1.2-.3 2.3-.5 3.3-.7.4-1.6.9-2.5 1.4-16.2 8.7-65.5 31.4-138.5 31.4-77 0-128.1-25.5-141.1-32.9-1.3-6.4-1.8-17.5-1.7-24.7 0-.6.1-1.3.1-2 .6-18.2 2.6-38.2 21.3-44.8 39.8-10.2 71.7-32.5 73-33.4 4.9-3.4 6.1-10.2 2.6-15-3.4-4.9-10.2-6.1-15-2.6-.3.2-30.2 21-66.4 30.2-.3.1-.6.2-.8.2-34.7 11.9-35.8 49-36.2 64.7 0 .7 0 1.4-.1 2v.2c-.1 4.2-.2 25.5 4.1 36.2.8 2.1 2.2 3.8 4.2 5 2.4 1.6 59.9 38.2 156.2 38.2s153.8-36.7 156.2-38.2c1.8-1.2 3.4-3 4.2-5 1-2.7 1.8-6.1 2.3-9.7h1.7v-9.6c31.6-8.4 49.5-19.9 50.7-20.6 1.4-.9 2.6-2.3 3.2-3.9 2.9-8.2 2.8-24.6 2.8-27.8z"/></svg>