<?xml version="1.0" encoding="iso-8859-1"?>
<!-- Generator: Adobe Illustrator 19.0.0, SVG Export Plug-In . SVG Version: 6.00 Build 0)  -->
<svg version="1.1" xmlns="http://www.w3.org/2000/svg" xmlns:xlink="http://www.w3.org/1999/xlink" x="0px" y="0px"  height="30" width="30"
	 viewBox="-209 301.853 191.147 191.147" style="enable-background:new -209 301.853 191.147 191.147;" xml:space="preserve">
<path d="M-140.992,318.853h-54.096c-7.672,0-13.911,6.24-13.911,13.909v54.101
	c0,7.67,6.24,13.909,13.911,13.909h54.096c7.672,0,13.911-6.24,13.911-13.911v-54.1
	C-127.081,325.093-133.32,318.853-140.992,318.853z M-133.909,386.862c0,3.907-3.178,7.083-7.084,7.083h-54.097
	c-3.907,0-7.084-3.176-7.084-7.083v-54.1c0-3.907,3.178-7.083,7.084-7.083h54.096c3.907,0,7.084,3.176,7.084,7.083v54.1H-133.909z"
	/>
<path d="M-48.765,318.853h-54.096c-7.672,0-13.911,6.24-13.911,13.909v54.101
	c0,7.67,6.24,13.909,13.911,13.909h54.096c7.671,0,13.911-6.24,13.911-13.911v-54.1C-34.854,325.093-41.094,318.853-48.765,318.853z
	 M-41.683,386.862c0,3.907-3.178,7.083-7.084,7.083h-54.096c-3.907,0-7.084-3.176-7.084-7.083v-54.1
	c0-3.907,3.178-7.083,7.084-7.083h54.096c3.907,0,7.084,3.176,7.084,7.083V386.862z"/>
<path d="M-140.992,411.08h-54.096c-7.671,0-13.911,6.24-13.911,13.909v54.101
	c0,7.67,6.24,13.909,13.911,13.909h54.096c7.672,0,13.911-6.24,13.911-13.911v-54.1C-127.081,417.319-133.32,411.08-140.992,411.08z
	 M-133.909,479.089c0,3.907-3.178,7.083-7.084,7.083h-54.097c-3.907,0-7.084-3.176-7.084-7.083v-54.1
	c0-3.907,3.178-7.083,7.084-7.083h54.096c3.907,0,7.084,3.176,7.084,7.083v54.1H-133.909z"/>
<path d="M-48.765,411.08h-54.096c-7.672,0-13.911,6.24-13.911,13.909v54.101
	c0,7.67,6.24,13.909,13.911,13.909h54.096c7.671,0,13.911-6.24,13.911-13.911v-54.1C-34.854,417.319-41.094,411.08-48.765,411.08z
	 M-41.683,479.089c0,3.907-3.178,7.083-7.084,7.083h-54.096c-3.907,0-7.084-3.176-7.084-7.083v-54.1
	c0-3.907,3.178-7.083,7.084-7.083h54.096c3.907,0,7.084,3.176,7.084,7.083V479.089z"/>
</svg>
