<?xml version="1.0" encoding="utf-8"?>
<!-- Generator: Adobe Illustrator 19.0.0, SVG Export Plug-In . SVG Version: 6.00 Build 0)  -->
<svg version="1.1" xmlns="http://www.w3.org/2000/svg" xmlns:xlink="http://www.w3.org/1999/xlink" x="0px" y="0px" height="30" width="30"
	 viewBox="110 300 420 250" style="enable-background:new 0 0 595.3 841.9;" xml:space="preserve">
<path class="st0" d="M364.7,398.4c7.1,5.7,16,8.5,27,8.6h0.6c13.6-0.1,24-4.4,31.8-13.2c19.6-22.1,15.3-64,15.2-64.5
	c-0.1-0.1-0.1-0.3-0.1-0.5c-1.9-41.8-30.2-48.6-46.9-49h-0.7c-4.3,0-10.3,0.5-16.7,2.5c2.7,8.5,4.6,18.3,5.1,29.8
	C380.5,317.3,384.5,363.7,364.7,398.4z"/>
<path d="M349.5,278c3-2.6,6.1-4.7,9-6.3c3.3-1.9,6.6-3.3,9.8-4.5c-0.9-1.5-1.8-3-2.7-4.4h-28.9C341.5,266.7,345.9,271.7,349.5,278z"
	/>
<path d="M455.8,327.9c-1.5-32.9-17.1-48.6-29.9-55.9c-9.6-5.5-20.7-8.5-33.2-8.7h-1c-5.1,0-13.9,0.6-23.4,4
	c-3.2,1.1-6.5,2.6-9.8,4.5c-2.9,1.7-6,3.7-9,6.3c2.7,4.8,4.9,10.5,6.5,17c1.3,5.5,2.2,11.7,2.5,18.6c0,0.2,0,0.5,0.1,0.6
	c0.1,0.4,3.7,35.4-7.9,64c-2.5,6.2-5.8,12.1-9.9,17.3c-0.6,0.8-1.3,1.6-1.9,2.3c-10.1,11.4-23.5,17-41.2,17.1h-0.8
	c-12.5-0.1-22.9-3-31.4-8.6c-3.5-2.3-6.8-5.2-9.7-8.5c-25.4-28.5-19.9-83.1-19.8-83.6c0-0.2,0.1-0.5,0.1-0.6
	c2.6-57.4,43.4-63.5,60.8-63.5h1c11.2,0.2,26.5,2.7,39,12.7h28.9c-7.3-11.2-16.3-18.4-24.4-23.1c-12.4-7.1-26.9-11-43-11.3h-1.4
	c-8.9,0-26.3,1.4-43,11c-16.8,9.5-37.3,29.9-39.3,72.9c-0.6,5.7-5.7,65.2,25.1,99.9c7.2,8.2,15.9,14.3,25.8,18.4
	c9.1,3.8,19.3,5.8,30.6,6h2.6c23.4-0.4,42.4-8.6,56.4-24.4c0.1-0.1,0.1-0.1,0.2-0.2c9.7,7.5,21.7,11.5,35.9,11.7h2
	c18.1-0.3,32.7-6.7,43.5-18.8C460.1,378.2,456.2,332.3,455.8,327.9z M424,393.9c-7.8,8.8-18.1,13.1-31.8,13.2h-0.6
	c-11-0.1-19.9-2.9-27-8.6c19.8-34.8,15.8-81.2,15.3-86.1c-0.5-11.5-2.4-21.3-5.1-29.8c6.4-2.1,12.4-2.5,16.7-2.5h0.7
	c16.7,0.4,45,7.2,46.9,49c0,0.2,0,0.4,0.1,0.5C439.3,329.9,443.6,371.8,424,393.9z"/>
<path d="M518.7,499.9v-0.2c0-0.5-0.1-1-0.1-1.5c-0.4-12.2-1.2-40.8-27.9-49.9c-0.2-0.1-0.4-0.1-0.6-0.2
	c-10.4-2.6-20.1-6.5-28.3-10.4c-13.6-6.5-22.8-12.8-22.9-12.9c-3.8-2.7-8.9-1.7-11.6,2c-2.7,3.8-1.7,8.9,2,11.6
	c0.8,0.5,13.8,9.6,32.5,17.5c7.2,3.1,15.3,6,23.8,8.2c14.4,5.1,16,20.5,16.4,34.5c0,0.6,0,1,0.1,1.5c0.1,5.6-0.3,14.1-1.3,19.1
	c-5.3,3-18.7,9.9-39,15.7c-0.1,0-0.1,0-0.2,0.1c0-0.6-0.1-1.2-0.1-1.9c-0.5-15.8-1.5-52.9-36.2-64.7c-0.2-0.1-0.6-0.2-0.8-0.2
	c-36.1-9.2-66.1-30-66.4-30.2c-0.6-0.4-1.2-0.7-1.8-1c-4.6-2.1-10.2-0.7-13.3,3.6c-1.3,1.9-1.9,4-2,6.1c0,3.4,1.6,6.8,4.6,8.9
	c1.4,1,33.2,23.1,73,33.4c18.6,6.6,20.7,26.6,21.3,44.8c0,0.7,0,1.4,0.1,2c0,1.3,0,2.8,0,4.4c-0.1,5.5-0.4,12.1-1.1,17.1
	c-0.2,1.2-0.3,2.3-0.5,3.3c-0.7,0.4-1.6,0.9-2.5,1.4c-16.2,8.7-65.5,31.4-138.5,31.4c-77,0-128.1-25.5-141.1-32.9
	c-1.3-6.4-1.8-17.5-1.7-24.7c0-0.6,0.1-1.3,0.1-2c0.6-18.2,2.6-38.2,21.3-44.8c39.8-10.2,71.7-32.5,73-33.4c4.9-3.4,6.1-10.2,2.6-15
	c-3.4-4.9-10.2-6.1-15-2.6c-0.3,0.2-30.2,21-66.4,30.2c-0.3,0.1-0.6,0.2-0.8,0.2c-34.7,11.9-35.8,49-36.2,64.7c0,0.7,0,1.4-0.1,2
	v0.2c-0.1,4.2-0.2,25.5,4.1,36.2c0.8,2.1,2.2,3.8,4.2,5c2.4,1.6,59.9,38.2,156.2,38.2s153.8-36.7,156.2-38.2c1.8-1.2,3.4-3,4.2-5
	c1-2.7,1.8-6.1,2.3-9.7h1.7v-9.6c31.6-8.4,49.5-19.9,50.7-20.6c1.4-0.9,2.6-2.3,3.2-3.9C518.8,519.5,518.7,503.1,518.7,499.9z"/>
</svg>
