<svg xmlns="http://www.w3.org/2000/svg" viewBox="0 0 512 512" width="30" height="30"><path d="M511.388 368.602a13.424 13.424 0 0 0-.04-.228L489.455 248.48c-3.682-21.724-22.321-37.48-44.368-37.48h-84.186v-16c0-41.928-24.606-78.189-60.222-95.006 9.519-10.623 15.322-24.642 15.322-39.994 0-33.084-26.916-60-60-60s-60 26.916-60 60c0 15.353 5.803 29.372 15.322 39.994-35.616 16.817-60.322 53.078-60.322 95.006v16H66.915c-22.045 0-40.683 15.753-44.366 37.476L.652 368.373l-.04.229c-4.284 25.701 14.98 49.635 40.915 52.168-6.739 13.979-10.525 29.666-10.525 46.23v30c0 8.284 6.716 15 15 15h180c8.284 0 14.9-6.716 14.9-15v-30c0-16.473-3.642-32.179-10.312-46.1h50.824c-6.67 13.921-10.412 29.627-10.412 46.1v30c0 8.284 6.716 15 15 15h180c8.284 0 14.9-6.716 14.9-15v-30c0-16.564-3.686-32.251-10.426-46.23 25.933-2.534 45.195-26.47 40.912-52.168zM256.001 30c16.542 0 30 13.458 30 30s-13.458 30-30 30-30-13.458-30-30 13.459-30 30-30zm-75.099 165c0-41.355 33.745-75 75.1-75s75 33.645 75 75v16h-150.1v-16zm30.099 287h-150.1v-15c0-41.907 33.745-76 75.1-76s75 34.093 75 76v15zm-105-151c0-16.542 13.458-30 30-30s30 13.458 30 30-13.458 30-30 30-30-13.458-30-30zm345 151h-150.1v-15c0-41.907 33.745-76 75.1-76s75 34.093 75 76v15zm-105-151c0-16.542 13.458-30 30-30s30 13.458 30 30-13.458 30-30 30-30-13.458-30-30zM466 391h-16.885a105.418 105.418 0 0 0-28.495-19.938C430.175 360.431 436 346.385 436 331c0-33.084-26.916-60-60-60s-60 26.916-60 60c0 15.385 5.826 29.431 15.38 40.062A105.418 105.418 0 0 0 302.885 391h-93.772a105.418 105.418 0 0 0-28.495-19.938c9.555-10.631 15.38-24.677 15.38-40.062 0-33.084-26.916-60-60-60s-60 26.916-60 60c0 15.385 5.826 29.431 15.38 40.062A105.46 105.46 0 0 0 62.887 391H46c-9.42 0-17.238-8.437-15.812-17.37l21.891-119.867.04-.229A14.953 14.953 0 0 1 66.915 241h378.172a14.952 14.952 0 0 1 14.796 12.534l.04.228 21.887 119.864C483.239 382.554 475.427 391 466 391z"/></svg>