<svg xmlns="http://www.w3.org/2000/svg" viewBox="-209 301.853 191.147 191.147"><path d="M-140.992 318.853h-54.096c-7.672 0-13.911 6.24-13.911 13.909v54.101c0 7.67 6.24 13.909 13.911 13.909h54.096c7.672 0 13.911-6.24 13.911-13.911v-54.1c0-7.668-6.239-13.908-13.911-13.908zm7.083 68.009c0 3.907-3.178 7.083-7.084 7.083h-54.097a7.09 7.09 0 0 1-7.084-7.083v-54.1c0-3.907 3.178-7.083 7.084-7.083h54.096a7.09 7.09 0 0 1 7.084 7.083v54.1h.001zm85.144-68.009h-54.096c-7.672 0-13.911 6.24-13.911 13.909v54.101c0 7.67 6.24 13.909 13.911 13.909h54.096c7.671 0 13.911-6.24 13.911-13.911v-54.1c0-7.668-6.24-13.908-13.911-13.908zm7.082 68.009c0 3.907-3.178 7.083-7.084 7.083h-54.096a7.09 7.09 0 0 1-7.084-7.083v-54.1c0-3.907 3.178-7.083 7.084-7.083h54.096a7.09 7.09 0 0 1 7.084 7.083v54.1zm-99.309 24.218h-54.096c-7.671 0-13.911 6.24-13.911 13.909v54.101c0 7.67 6.24 13.909 13.911 13.909h54.096c7.672 0 13.911-6.24 13.911-13.911v-54.1c0-7.669-6.239-13.908-13.911-13.908zm7.083 68.009c0 3.907-3.178 7.083-7.084 7.083h-54.097a7.09 7.09 0 0 1-7.084-7.083v-54.1c0-3.907 3.178-7.083 7.084-7.083h54.096a7.09 7.09 0 0 1 7.084 7.083v54.1h.001zm85.144-68.009h-54.096c-7.672 0-13.911 6.24-13.911 13.909v54.101c0 7.67 6.24 13.909 13.911 13.909h54.096c7.671 0 13.911-6.24 13.911-13.911v-54.1c0-7.669-6.24-13.908-13.911-13.908zm7.082 68.009c0 3.907-3.178 7.083-7.084 7.083h-54.096a7.09 7.09 0 0 1-7.084-7.083v-54.1c0-3.907 3.178-7.083 7.084-7.083h54.096a7.09 7.09 0 0 1 7.084 7.083v54.1z" fill="#fff"/></svg>